<svg xmlns="http://www.w3.org/2000/svg" width="2000" height="2000"><path d="M1074,1087L1222,926L938,796Z" fill="#2291c1" stroke="#2291c1" stroke-width="1.51"/><path d="M1222,926L1218,819L938,796Z" fill="#2985c1" stroke="#2985c1" stroke-width="1.51"/><path d="M938,796L786,988L1074,1087Z" fill="#2092c0" stroke="#2092c0" stroke-width="1.51"/><path d="M817,862L786,988L938,796Z" fill="#2984bf" stroke="#2984bf" stroke-width="1.51"/><path d="M1218,819L1040,574L938,796Z" fill="#2b7fbf" stroke="#2b7fbf" stroke-width="1.51"/><path d="M938,796L740,561L817,862Z" fill="#2d77bc" stroke="#2d77bc" stroke-width="1.51"/><path d="M1218,819L1200,597L1040,574Z" fill="#2e74c0" stroke="#2e74c0" stroke-width="1.51"/><path d="M786,988L943,1288L1074,1087Z" fill="#258ec3" stroke="#258ec3" stroke-width="1.51"/><path d="M1074,1087L1256,1299L1222,926Z" fill="#2988c5" stroke="#2988c5" stroke-width="1.51"/><path d="M943,1288L1256,1299L1074,1087Z" fill="#2a86c6" stroke="#2a86c6" stroke-width="1.51"/><path d="M1222,926L1509,798L1218,819Z" fill="#2e79c4" stroke="#2e79c4" stroke-width="1.51"/><path d="M1218,819L1509,798L1200,597Z" fill="#3070c2" stroke="#3070c2" stroke-width="1.51"/><path d="M1502,1081L1509,798L1222,926Z" fill="#2e7ac7" stroke="#2e7ac7" stroke-width="1.51"/><path d="M1040,574L740,561L938,796Z" fill="#2e75bc" stroke="#2e75bc" stroke-width="1.51"/><path d="M817,862L570,930L786,988Z" fill="#2c7ebd" stroke="#2c7ebd" stroke-width="1.51"/><path d="M1256,1299L1502,1081L1222,926Z" fill="#2d7ec7" stroke="#2d7ec7" stroke-width="1.51"/><path d="M786,988L719,1264L943,1288Z" fill="#2c7fc1" stroke="#2c7fc1" stroke-width="1.51"/><path d="M570,930L719,1264L786,988Z" fill="#2c7dbf" stroke="#2c7dbf" stroke-width="1.51"/><path d="M518,693L570,930L817,862Z" fill="#2f6ebb" stroke="#2f6ebb" stroke-width="1.51"/><path d="M943,1288L1256,1458L1256,1299Z" fill="#2f7ac9" stroke="#2f7ac9" stroke-width="1.51"/><path d="M849,1419L921,1412L943,1288Z" fill="#2e7ac6" stroke="#2e7ac6" stroke-width="1.51"/><path d="M1502,1081L1577,868L1509,798Z" fill="#3071c8" stroke="#3071c8" stroke-width="1.51"/><path d="M719,1264L849,1419L943,1288Z" fill="#2f77c4" stroke="#2f77c4" stroke-width="1.51"/><path d="M1502,1081L1591,971L1577,868Z" fill="#2f73c8" stroke="#2f73c8" stroke-width="1.51"/><path d="M1502,1081L1617,1260L1591,971Z" fill="#306ecb" stroke="#306ecb" stroke-width="1.51"/><path d="M1256,1299L1490,1238L1502,1081Z" fill="#3071ca" stroke="#3071ca" stroke-width="1.51"/><path d="M1351,1440L1490,1238L1256,1299Z" fill="#306dcb" stroke="#306dcb" stroke-width="1.51"/><path d="M740,561L623,574L817,862Z" fill="#2f68ba" stroke="#2f68ba" stroke-width="1.51"/><path d="M1040,574L805,293L740,561Z" fill="#2f63b9" stroke="#2f63b9" stroke-width="1.51"/><path d="M740,561L502,427L623,574Z" fill="#2d53b7" stroke="#2d53b7" stroke-width="1.51"/><path d="M1200,597L1059,351L1040,574Z" fill="#2f6bbd" stroke="#2f6bbd" stroke-width="1.51"/><path d="M1180,308L1059,351L1200,597Z" fill="#2f60bc" stroke="#2f60bc" stroke-width="1.51"/><path d="M1509,798L1518,582L1200,597Z" fill="#2f63c3" stroke="#2f63c3" stroke-width="1.51"/><path d="M1577,868L1518,582L1509,798Z" fill="#3062c6" stroke="#3062c6" stroke-width="1.51"/><path d="M921,1412L1256,1458L943,1288Z" fill="#2d7fc7" stroke="#2d7fc7" stroke-width="1.51"/><path d="M1042,1571L1256,1458L921,1412Z" fill="#2f76c9" stroke="#2f76c9" stroke-width="1.51"/><path d="M623,574L518,693L817,862Z" fill="#2f65ba" stroke="#2f65ba" stroke-width="1.51"/><path d="M1256,1458L1351,1440L1256,1299Z" fill="#2f6dcb" stroke="#2f6dcb" stroke-width="1.51"/><path d="M1416,378L1180,308L1200,597Z" fill="#2e58be" stroke="#2e58be" stroke-width="1.51"/><path d="M719,1264L591,1389L849,1419Z" fill="#306cc3" stroke="#306cc3" stroke-width="1.51"/><path d="M570,930L507,1273L719,1264Z" fill="#2f6ebf" stroke="#2f6ebf" stroke-width="1.51"/><path d="M380,1134L507,1273L570,930Z" fill="#2f68bd" stroke="#2f68bd" stroke-width="1.51"/><path d="M798,1630L1042,1571L921,1412Z" fill="#3070c8" stroke="#3070c8" stroke-width="1.51"/><path d="M1256,1458L1233,1690L1351,1440Z" fill="#2f64cd" stroke="#2f64cd" stroke-width="1.51"/><path d="M798,1630L921,1412L849,1419Z" fill="#306ec7" stroke="#306ec7" stroke-width="1.51"/><path d="M1518,582L1416,378L1200,597Z" fill="#2e59c1" stroke="#2e59c1" stroke-width="1.51"/><path d="M1490,1238L1617,1260L1502,1081Z" fill="#306acc" stroke="#306acc" stroke-width="1.51"/><path d="M1628,1456L1617,1260L1490,1238Z" fill="#2e5ece" stroke="#2e5ece" stroke-width="1.51"/><path d="M507,1273L591,1389L719,1264Z" fill="#2f65c1" stroke="#2f65c1" stroke-width="1.51"/><path d="M921,176L805,293L1059,351Z" fill="#2e59b9" stroke="#2e59b9" stroke-width="1.51"/><path d="M1059,351L805,293L1040,574Z" fill="#2f66ba" stroke="#2f66ba" stroke-width="1.51"/><path d="M623,574L502,427L518,693Z" fill="#2d51b7" stroke="#2d51b7" stroke-width="1.51"/><path d="M1518,582L1602,493L1416,378Z" fill="#2a4cc2" stroke="#2a4cc2" stroke-width="1.51"/><path d="M1930,744L1602,493L1518,582Z" fill="#294bc6" stroke="#294bc6" stroke-width="1.51"/><path d="M1930,744L1518,582L1577,868Z" fill="#2d57c7" stroke="#2d57c7" stroke-width="1.51"/><path d="M1837,1042L1577,868L1591,971Z" fill="#306bca" stroke="#306bca" stroke-width="1.51"/><path d="M307,995L380,1134L570,930Z" fill="#2f69bb" stroke="#2f69bb" stroke-width="1.51"/><path d="M507,1273L342,1388L591,1389Z" fill="#2e58c0" stroke="#2e58c0" stroke-width="1.51"/><path d="M805,293L502,427L740,561Z" fill="#2d4fb7" stroke="#2d4fb7" stroke-width="1.51"/><path d="M518,693L307,995L570,930Z" fill="#2f63b9" stroke="#2f63b9" stroke-width="1.51"/><path d="M264,711L307,995L518,693Z" fill="#2e54b7" stroke="#2e54b7" stroke-width="1.51"/><path d="M591,1389L798,1630L849,1419Z" fill="#3065c5" stroke="#3065c5" stroke-width="1.51"/><path d="M805,293L601,202L502,427Z" fill="#2941b5" stroke="#2941b5" stroke-width="1.51"/><path d="M1180,308L921,176L1059,351Z" fill="#2f5cba" stroke="#2f5cba" stroke-width="1.51"/><path d="M1162,40L921,176L1180,308Z" fill="#305fc0" stroke="#305fc0" stroke-width="1.51"/><path d="M921,176L729,208L805,293Z" fill="#2e53b9" stroke="#2e53b9" stroke-width="1.51"/><path d="M1351,1440L1628,1456L1490,1238Z" fill="#2f60ce" stroke="#2f60ce" stroke-width="1.51"/><path d="M1617,1260L1837,1042L1591,971Z" fill="#2f67cc" stroke="#2f67cc" stroke-width="1.51"/><path d="M1483,1731L1628,1456L1351,1440Z" fill="#2b55d0" stroke="#2b55d0" stroke-width="1.51"/><path d="M1233,1690L1256,1458L1042,1571Z" fill="#2f68cc" stroke="#2f68cc" stroke-width="1.51"/><path d="M1007,1820L1233,1690L1042,1571Z" fill="#2f66cc" stroke="#2f66cc" stroke-width="1.51"/><path d="M1928,1208L1837,1042L1617,1260Z" fill="#3066ce" stroke="#3066ce" stroke-width="1.51"/><path d="M1602,493L1663,404L1416,378Z" fill="#2743c1" stroke="#2743c1" stroke-width="1.51"/><path d="M1416,378L1378,160L1180,308Z" fill="#2a48bd" stroke="#2a48bd" stroke-width="1.51"/><path d="M1944,471L1663,404L1602,493Z" fill="#223dc4" stroke="#223dc4" stroke-width="1.51"/><path d="M329,508L264,711L518,693Z" fill="#2a47b5" stroke="#2a47b5" stroke-width="1.51"/><path d="M1626,132L1378,160L1416,378Z" fill="#2641c2" stroke="#2641c2" stroke-width="1.51"/><path d="M502,427L329,508L518,693Z" fill="#2a46b5" stroke="#2a46b5" stroke-width="1.51"/><path d="M384,305L329,508L502,427Z" fill="#2436b2" stroke="#2436b2" stroke-width="1.51"/><path d="M526,-37L601,202L729,208Z" fill="#2b47bd" stroke="#2b47bd" stroke-width="1.51"/><path d="M729,208L601,202L805,293Z" fill="#2b49b8" stroke="#2b49b8" stroke-width="1.51"/><path d="M591,1389L629,1663L798,1630Z" fill="#2e59c5" stroke="#2e59c5" stroke-width="1.51"/><path d="M380,1134L342,1388L507,1273Z" fill="#2e57be" stroke="#2e57be" stroke-width="1.51"/><path d="M177,1367L342,1388L380,1134Z" fill="#2b4cbd" stroke="#2b4cbd" stroke-width="1.51"/><path d="M189,1005L380,1134L307,995Z" fill="#2f5cb9" stroke="#2f5cb9" stroke-width="1.51"/><path d="M798,1630L1007,1820L1042,1571Z" fill="#2f69ca" stroke="#2f69ca" stroke-width="1.51"/><path d="M422,1587L629,1663L591,1389Z" fill="#2c50c3" stroke="#2c50c3" stroke-width="1.51"/><path d="M264,711L192,830L307,995Z" fill="#2d54b8" stroke="#2d54b8" stroke-width="1.51"/><path d="M99,605L192,830L264,711Z" fill="#2c4cbb" stroke="#2c4cbb" stroke-width="1.51"/><path d="M192,830L189,1005L307,995Z" fill="#2f5dbb" stroke="#2f5dbb" stroke-width="1.51"/><path d="M1378,160L1162,40L1180,308Z" fill="#2e55c2" stroke="#2e55c2" stroke-width="1.51"/><path d="M705,-172L526,-37L729,208Z" fill="#2e52c4" stroke="#2e52c4" stroke-width="1.51"/><path d="M1837,1042L1930,744L1577,868Z" fill="#3167cb" stroke="#3167cb" stroke-width="1.51"/><path d="M791,1875L1007,1820L798,1630Z" fill="#3065ca" stroke="#3065ca" stroke-width="1.51"/><path d="M329,508L99,605L264,711Z" fill="#2840b7" stroke="#2840b7" stroke-width="1.51"/><path d="M601,202L384,305L502,427Z" fill="#2335b3" stroke="#2335b3" stroke-width="1.51"/><path d="M1407,1886L1483,1731L1233,1690Z" fill="#2c56d1" stroke="#2c56d1" stroke-width="1.51"/><path d="M1233,1690L1483,1731L1351,1440Z" fill="#2d58cf" stroke="#2d58cf" stroke-width="1.51"/><path d="M342,1388L422,1587L591,1389Z" fill="#2b4ec1" stroke="#2b4ec1" stroke-width="1.51"/><path d="M629,1663L791,1875L798,1630Z" fill="#2c55c8" stroke="#2c55c8" stroke-width="1.51"/><path d="M1818,1447L1617,1260L1628,1456Z" fill="#2a52d0" stroke="#2a52d0" stroke-width="1.51"/><path d="M1818,1447L1928,1208L1617,1260Z" fill="#2e5dd0" stroke="#2e5dd0" stroke-width="1.51"/><path d="M1837,1042L2028,816L1930,744Z" fill="#3274cc" stroke="#3274cc" stroke-width="1.51"/><path d="M1719,1610L1818,1447L1628,1456Z" fill="#2448d2" stroke="#2448d2" stroke-width="1.51"/><path d="M1483,1731L1719,1610L1628,1456Z" fill="#2548d1" stroke="#2548d1" stroke-width="1.51"/><path d="M1162,40L1072,-53L921,176Z" fill="#3169c6" stroke="#3169c6" stroke-width="1.51"/><path d="M601,202L395,148L384,305Z" fill="#2233b5" stroke="#2233b5" stroke-width="1.51"/><path d="M1203,-103L1072,-53L1162,40Z" fill="#3268cc" stroke="#3268cc" stroke-width="1.51"/><path d="M1378,160L1203,-103L1162,40Z" fill="#305dca" stroke="#305dca" stroke-width="1.51"/><path d="M1663,404L1626,132L1416,378Z" fill="#2038c0" stroke="#2038c0" stroke-width="1.51"/><path d="M1892,161L1626,132L1663,404Z" fill="#172fc4" stroke="#172fc4" stroke-width="1.51"/><path d="M2082,912L2028,816L1837,1042Z" fill="#327ecd" stroke="#327ecd" stroke-width="1.51"/><path d="M1930,744L1944,471L1602,493Z" fill="#2c50c7" stroke="#2c50c7" stroke-width="1.51"/><path d="M342,1388L140,1613L422,1587Z" fill="#223bbf" stroke="#223bbf" stroke-width="1.51"/><path d="M75,1252L177,1367L380,1134Z" fill="#2d52c0" stroke="#2d52c0" stroke-width="1.51"/><path d="M75,1252L380,1134L189,1005Z" fill="#2f5abe" stroke="#2f5abe" stroke-width="1.51"/><path d="M596,1963L791,1875L629,1663Z" fill="#2f5ac8" stroke="#2f5ac8" stroke-width="1.51"/><path d="M1194,1945L1407,1886L1233,1690Z" fill="#3064d0" stroke="#3064d0" stroke-width="1.51"/><path d="M2138,545L1944,471L1930,744Z" fill="#3263c9" stroke="#3263c9" stroke-width="1.51"/><path d="M192,830L-98,744L189,1005Z" fill="#305ec1" stroke="#305ec1" stroke-width="1.51"/><path d="M178,391L99,605L329,508Z" fill="#2438b7" stroke="#2438b7" stroke-width="1.51"/><path d="M384,305L178,391L329,508Z" fill="#1d2ab1" stroke="#1d2ab1" stroke-width="1.51"/><path d="M526,-37L395,148L601,202Z" fill="#273fbc" stroke="#273fbc" stroke-width="1.51"/><path d="M395,148L178,391L384,305Z" fill="#1521b0" stroke="#1521b0" stroke-width="1.51"/><path d="M1928,1208L2054,1152L1837,1042Z" fill="#3277cf" stroke="#3277cf" stroke-width="1.51"/><path d="M2039,1395L2054,1152L1928,1208Z" fill="#3376d1" stroke="#3376d1" stroke-width="1.51"/><path d="M2039,1395L1928,1208L1818,1447Z" fill="#3267d2" stroke="#3267d2" stroke-width="1.51"/><path d="M2028,816L2138,545L1930,744Z" fill="#336fca" stroke="#336fca" stroke-width="1.51"/><path d="M2054,1152L2082,912L1837,1042Z" fill="#3183ce" stroke="#3183ce" stroke-width="1.51"/><path d="M1194,1945L1233,1690L1007,1820Z" fill="#316bce" stroke="#316bce" stroke-width="1.51"/><path d="M1904,1834L1908,1714L1719,1610Z" fill="#2344d6" stroke="#2344d6" stroke-width="1.51"/><path d="M-171,1013L75,1252L189,1005Z" fill="#3168c8" stroke="#3168c8" stroke-width="1.51"/><path d="M705,-172L729,208L921,176Z" fill="#2f59c2" stroke="#2f59c2" stroke-width="1.51"/><path d="M1481,-56L1203,-103L1378,160Z" fill="#2e57cd" stroke="#2e57cd" stroke-width="1.51"/><path d="M1072,2169L1194,1945L1007,1820Z" fill="#317ecf" stroke="#317ecf" stroke-width="1.51"/><path d="M1626,132L1481,-56L1378,160Z" fill="#2848cb" stroke="#2848cb" stroke-width="1.51"/><path d="M1695,-177L1481,-56L1626,132Z" fill="#2747d2" stroke="#2747d2" stroke-width="1.51"/><path d="M705,-172L921,176L1072,-53Z" fill="#3168c8" stroke="#3168c8" stroke-width="1.51"/><path d="M395,148L101,68L178,391Z" fill="#1827b7" stroke="#1827b7" stroke-width="1.51"/><path d="M2054,1152L2231,919L2082,912Z" fill="#2d91cf" stroke="#2d91cf" stroke-width="1.51"/><path d="M1908,1714L2039,1395L1818,1447Z" fill="#2f5ad4" stroke="#2f5ad4" stroke-width="1.51"/><path d="M1908,1714L1818,1447L1719,1610Z" fill="#274bd3" stroke="#274bd3" stroke-width="1.51"/><path d="M1944,471L1944,280L1663,404Z" fill="#2742c4" stroke="#2742c4" stroke-width="1.51"/><path d="M2043,313L1944,280L1944,471Z" fill="#2c4cc5" stroke="#2c4cc5" stroke-width="1.51"/><path d="M1944,280L1892,161L1663,404Z" fill="#2037c3" stroke="#2037c3" stroke-width="1.51"/><path d="M791,1875L754,2050L1007,1820Z" fill="#3271cc" stroke="#3271cc" stroke-width="1.51"/><path d="M297,1861L596,1963L629,1663Z" fill="#2b4bc6" stroke="#2b4bc6" stroke-width="1.51"/><path d="M297,1861L629,1663L422,1587Z" fill="#213bc4" stroke="#213bc4" stroke-width="1.51"/><path d="M140,1613L342,1388L177,1367Z" fill="#2742c2" stroke="#2742c2" stroke-width="1.51"/><path d="M1053,-256L705,-172L1072,-53Z" fill="#3274d0" stroke="#3274d0" stroke-width="1.51"/><path d="M-177,1436L140,1613L177,1367Z" fill="#2a4ccc" stroke="#2a4ccc" stroke-width="1.51"/><path d="M1944,280L2079,72L1892,161Z" fill="#2c4ccb" stroke="#2c4ccb" stroke-width="1.51"/><path d="M2242,785L2138,545L2028,816Z" fill="#347bcc" stroke="#347bcc" stroke-width="1.51"/><path d="M2242,785L2028,816L2082,912Z" fill="#3284cd" stroke="#3284cd" stroke-width="1.51"/><path d="M2138,545L2043,313L1944,471Z" fill="#315ac7" stroke="#315ac7" stroke-width="1.51"/><path d="M99,605L-98,744L192,830Z" fill="#2e55c1" stroke="#2e55c1" stroke-width="1.51"/><path d="M75,1252L-177,1436L177,1367Z" fill="#2e56cc" stroke="#2e56cc" stroke-width="1.51"/><path d="M-157,622L-98,744L99,605Z" fill="#2f55c6" stroke="#2f55c6" stroke-width="1.51"/><path d="M1684,1937L1719,1610L1483,1731Z" fill="#2142d4" stroke="#2142d4" stroke-width="1.51"/><path d="M596,1963L754,2050L791,1875Z" fill="#336aca" stroke="#336aca" stroke-width="1.51"/><path d="M1203,-103L1053,-256L1072,-53Z" fill="#3270d1" stroke="#3270d1" stroke-width="1.51"/><path d="M1238,-249L1053,-256L1203,-103Z" fill="#3371d6" stroke="#3371d6" stroke-width="1.51"/><path d="M2312,1185L2231,919L2054,1152Z" fill="#2e94d1" stroke="#2e94d1" stroke-width="1.51"/><path d="M1492,-315L1238,-249L1481,-56Z" fill="#3060d9" stroke="#3060d9" stroke-width="1.51"/><path d="M1481,-56L1238,-249L1203,-103Z" fill="#3163d4" stroke="#3163d4" stroke-width="1.51"/><path d="M1194,1945L1242,2096L1407,1886Z" fill="#3371d1" stroke="#3371d1" stroke-width="1.51"/><path d="M1407,1886L1684,1937L1483,1731Z" fill="#2c53d3" stroke="#2c53d3" stroke-width="1.51"/><path d="M1072,2169L1242,2096L1194,1945Z" fill="#3281d1" stroke="#3281d1" stroke-width="1.51"/><path d="M2231,919L2242,785L2082,912Z" fill="#2f8cce" stroke="#2f8cce" stroke-width="1.51"/><path d="M2079,72L1944,280L2043,313Z" fill="#2e4ec9" stroke="#2e4ec9" stroke-width="1.51"/><path d="M1493,2035L1684,1937L1407,1886Z" fill="#2f5dd5" stroke="#2f5dd5" stroke-width="1.51"/><path d="M1242,2096L1493,2035L1407,1886Z" fill="#336cd3" stroke="#336cd3" stroke-width="1.51"/><path d="M140,1613L297,1861L422,1587Z" fill="#162cc1" stroke="#162cc1" stroke-width="1.51"/><path d="M596,1963L639,2116L754,2050Z" fill="#336dca" stroke="#336dca" stroke-width="1.51"/><path d="M-60,338L-157,622L99,605Z" fill="#2b49c4" stroke="#2b49c4" stroke-width="1.51"/><path d="M526,-37L288,-26L395,148Z" fill="#2439be" stroke="#2439be" stroke-width="1.51"/><path d="M346,-336L288,-26L526,-37Z" fill="#2742c7" stroke="#2742c7" stroke-width="1.51"/><path d="M-98,744L-171,1013L189,1005Z" fill="#326bc8" stroke="#326bc8" stroke-width="1.51"/><path d="M-98,744L-239,980L-171,1013Z" fill="#3372d0" stroke="#3372d0" stroke-width="1.51"/><path d="M-60,338L99,605L178,391Z" fill="#253bbd" stroke="#253bbd" stroke-width="1.51"/><path d="M2153,1740L1904,1834L2157,1848Z" fill="#3364d9" stroke="#3364d9" stroke-width="1.51"/><path d="M1684,1937L1904,1834L1719,1610Z" fill="#2345d6" stroke="#2345d6" stroke-width="1.51"/><path d="M1908,1714L2153,1740L2039,1395Z" fill="#315fd7" stroke="#315fd7" stroke-width="1.51"/><path d="M2039,1395L2312,1185L2054,1152Z" fill="#3382d2" stroke="#3382d2" stroke-width="1.51"/><path d="M1242,2096L1451,2278L1493,2035Z" fill="#3578d5" stroke="#3578d5" stroke-width="1.51"/><path d="M754,2050L1072,2169L1007,1820Z" fill="#3183ce" stroke="#3183ce" stroke-width="1.51"/><path d="M705,-172L583,-242L526,-37Z" fill="#2f56cb" stroke="#2f56cb" stroke-width="1.51"/><path d="M776,-397L583,-242L705,-172Z" fill="#3265d3" stroke="#3265d3" stroke-width="1.51"/><path d="M101,68L-60,338L178,391Z" fill="#1b2cbb" stroke="#1b2cbb" stroke-width="1.51"/><path d="M754,2050L858,2275L1072,2169Z" fill="#2f8dce" stroke="#2f8dce" stroke-width="1.51"/><path d="M532,2246L639,2116L596,1963Z" fill="#346dca" stroke="#346dca" stroke-width="1.51"/><path d="M1918,-69L1695,-177L1626,132Z" fill="#2342d4" stroke="#2342d4" stroke-width="1.51"/><path d="M1918,-69L1626,132L1892,161Z" fill="#2542ce" stroke="#2542ce" stroke-width="1.51"/><path d="M-171,1013L-180,1239L75,1252Z" fill="#3269d0" stroke="#3269d0" stroke-width="1.51"/><path d="M140,1613L87,1852L297,1861Z" fill="#1f38c8" stroke="#1f38c8" stroke-width="1.51"/><path d="M-273,1203L-180,1239L-171,1013Z" fill="#3372d6" stroke="#3372d6" stroke-width="1.51"/><path d="M288,-26L101,68L395,148Z" fill="#1c2dbc" stroke="#1c2dbc" stroke-width="1.51"/><path d="M132,-59L101,68L288,-26Z" fill="#2238c5" stroke="#2238c5" stroke-width="1.51"/><path d="M2342,1425L2312,1185L2039,1395Z" fill="#3485d5" stroke="#3485d5" stroke-width="1.51"/><path d="M2231,919L2341,613L2242,785Z" fill="#318dce" stroke="#318dce" stroke-width="1.51"/><path d="M-285,828L-239,980L-98,744Z" fill="#336fd2" stroke="#336fd2" stroke-width="1.51"/><path d="M1695,-177L1594,-271L1481,-56Z" fill="#2b50d9" stroke="#2b50d9" stroke-width="1.51"/><path d="M1238,-249L776,-397L1053,-256Z" fill="#3380d9" stroke="#3380d9" stroke-width="1.51"/><path d="M1594,-271L1492,-315L1481,-56Z" fill="#2e58da" stroke="#2e58da" stroke-width="1.51"/><path d="M1053,-256L776,-397L705,-172Z" fill="#3473d5" stroke="#3473d5" stroke-width="1.51"/><path d="M2275,182L2043,313L2395,363Z" fill="#345fc7" stroke="#345fc7" stroke-width="1.51"/><path d="M2079,72L1918,-69L1892,161Z" fill="#2e52d1" stroke="#2e52d1" stroke-width="1.51"/><path d="M1695,-177L1895,-303L1594,-271Z" fill="#284ddf" stroke="#284ddf" stroke-width="1.51"/><path d="M2242,785L2341,613L2138,545Z" fill="#347fcc" stroke="#347fcc" stroke-width="1.51"/><path d="M2312,1185L2341,613L2231,919Z" fill="#2a9acf" stroke="#2a9acf" stroke-width="1.51"/><path d="M2275,182L2079,72L2043,313Z" fill="#335bcb" stroke="#335bcb" stroke-width="1.51"/><path d="M-299,1423L-177,1436L-180,1239Z" fill="#3264d9" stroke="#3264d9" stroke-width="1.51"/><path d="M-180,1239L-177,1436L75,1252Z" fill="#3160d2" stroke="#3160d2" stroke-width="1.51"/><path d="M297,1861L278,2067L596,1963Z" fill="#2d4ec6" stroke="#2d4ec6" stroke-width="1.51"/><path d="M-177,1436L-77,1641L140,1613Z" fill="#294bd2" stroke="#294bd2" stroke-width="1.51"/><path d="M-157,622L-285,828L-98,744Z" fill="#3264cf" stroke="#3264cf" stroke-width="1.51"/><path d="M-239,980L-273,1203L-171,1013Z" fill="#3379d6" stroke="#3379d6" stroke-width="1.51"/><path d="M-343,615L-285,828L-157,622Z" fill="#3365d3" stroke="#3365d3" stroke-width="1.51"/><path d="M-77,1641L87,1852L140,1613Z" fill="#1e3ace" stroke="#1e3ace" stroke-width="1.51"/><path d="M114,-299L132,-59L288,-26Z" fill="#253fcc" stroke="#253fcc" stroke-width="1.51"/><path d="M101,68L-112,197L-60,338Z" fill="#2137c4" stroke="#2137c4" stroke-width="1.51"/><path d="M583,-242L346,-336L526,-37Z" fill="#2d4fcd" stroke="#2d4fcd" stroke-width="1.51"/><path d="M1492,-315L776,-397L1238,-249Z" fill="#3477dc" stroke="#3477dc" stroke-width="1.51"/><path d="M-285,828L-273,1203L-239,980Z" fill="#3380d7" stroke="#3380d7" stroke-width="1.51"/><path d="M639,2116L858,2275L754,2050Z" fill="#337fcc" stroke="#337fcc" stroke-width="1.51"/><path d="M1211,2364L1451,2278L1242,2096Z" fill="#3389d5" stroke="#3389d5" stroke-width="1.51"/><path d="M532,2246L858,2275L639,2116Z" fill="#347ecc" stroke="#347ecc" stroke-width="1.51"/><path d="M-161,-17L-112,197L101,68Z" fill="#2640cd" stroke="#2640cd" stroke-width="1.51"/><path d="M-285,362L-343,615L-157,622Z" fill="#3057d1" stroke="#3057d1" stroke-width="1.51"/><path d="M1892,2056L1904,1834L1684,1937Z" fill="#2f5ad8" stroke="#2f5ad8" stroke-width="1.51"/><path d="M1904,1834L2153,1740L1908,1714Z" fill="#2e58d8" stroke="#2e58d8" stroke-width="1.51"/><path d="M858,2275L951,2299L1072,2169Z" fill="#299acf" stroke="#299acf" stroke-width="1.51"/><path d="M1729,2168L1892,2056L1684,1937Z" fill="#325fd9" stroke="#325fd9" stroke-width="1.51"/><path d="M2336,1594L2342,1425L2039,1395Z" fill="#357dd7" stroke="#357dd7" stroke-width="1.51"/><path d="M2312,1185L2342,1425L2341,613Z" fill="#26a1d2" stroke="#26a1d2" stroke-width="1.51"/><path d="M87,1852L278,2067L297,1861Z" fill="#2945c7" stroke="#2945c7" stroke-width="1.51"/><path d="M1729,2168L1684,1937L1493,2035Z" fill="#315ed7" stroke="#315ed7" stroke-width="1.51"/><path d="M1211,2364L1242,2096L1072,2169Z" fill="#308ed2" stroke="#308ed2" stroke-width="1.51"/><path d="M1451,2278L1729,2168L1493,2035Z" fill="#356fd7" stroke="#356fd7" stroke-width="1.51"/><path d="M858,2275L532,2246L951,2299Z" fill="#308dce" stroke="#308dce" stroke-width="1.51"/><path d="M278,2067L532,2246L596,1963Z" fill="#3361c8" stroke="#3361c8" stroke-width="1.51"/><path d="M2395,363L2043,313L2138,545Z" fill="#3566c9" stroke="#3566c9" stroke-width="1.51"/><path d="M2079,72L2148,-16L1918,-69Z" fill="#335ed6" stroke="#335ed6" stroke-width="1.51"/><path d="M-285,828L-343,615L-273,1203Z" fill="#3478d7" stroke="#3478d7" stroke-width="1.51"/><path d="M-285,362L-157,622L-60,338Z" fill="#2b49ca" stroke="#2b49ca" stroke-width="1.51"/><path d="M2275,182L2148,-16L2079,72Z" fill="#3565d2" stroke="#3565d2" stroke-width="1.51"/><path d="M1918,-69L1895,-303L1695,-177Z" fill="#2d54dd" stroke="#2d54dd" stroke-width="1.51"/><path d="M776,-397L346,-336L583,-242Z" fill="#315ed5" stroke="#315ed5" stroke-width="1.51"/><path d="M132,-59L-161,-17L101,68Z" fill="#2641cd" stroke="#2641cd" stroke-width="1.51"/><path d="M2153,1740L2336,1594L2039,1395Z" fill="#356fd8" stroke="#356fd8" stroke-width="1.51"/><path d="M1892,2056L2157,1848L1904,1834Z" fill="#3466da" stroke="#3466da" stroke-width="1.51"/><path d="M-273,1203L-299,1423L-180,1239Z" fill="#336bda" stroke="#336bda" stroke-width="1.51"/><path d="M-177,1436L-254,1600L-77,1641Z" fill="#2c52d8" stroke="#2c52d8" stroke-width="1.51"/><path d="M-77,1641L-148,1843L87,1852Z" fill="#2646d5" stroke="#2646d5" stroke-width="1.51"/><path d="M109,2128L350,2254L278,2067Z" fill="#3259c9" stroke="#3259c9" stroke-width="1.51"/><path d="M-343,615L-299,1423L-273,1203Z" fill="#347cda" stroke="#347cda" stroke-width="1.51"/><path d="M2397,1862L2336,1594L2153,1740Z" fill="#3773db" stroke="#3773db" stroke-width="1.51"/><path d="M-308,104L-285,362L-112,197Z" fill="#2743cf" stroke="#2743cf" stroke-width="1.51"/><path d="M-112,197L-285,362L-60,338Z" fill="#243bc7" stroke="#243bc7" stroke-width="1.51"/><path d="M2275,182L2363,-134L2148,-16Z" fill="#3872d7" stroke="#3872d7" stroke-width="1.51"/><path d="M2341,613L2395,363L2138,545Z" fill="#3678cb" stroke="#3678cb" stroke-width="1.51"/><path d="M2342,1425L2395,363L2341,613Z" fill="#2d97cf" stroke="#2d97cf" stroke-width="1.51"/><path d="M2397,1862L2395,363L2342,1425Z" fill="#2c9cd4" stroke="#2c9cd4" stroke-width="1.51"/><path d="M127,2312L1211,2364L951,2299Z" fill="#2f91ce" stroke="#2f91ce" stroke-width="1.51"/><path d="M951,2299L1211,2364L1072,2169Z" fill="#2a9bd1" stroke="#2a9bd1" stroke-width="1.51"/><path d="M-299,1423L-254,1600L-177,1436Z" fill="#305ddc" stroke="#305ddc" stroke-width="1.51"/><path d="M1492,-315L2180,-355L776,-397Z" fill="#3163e2" stroke="#3163e2" stroke-width="1.51"/><path d="M1594,-271L1895,-303L1492,-315Z" fill="#2b53e1" stroke="#2b53e1" stroke-width="1.51"/><path d="M2180,-355L1895,-303L1918,-69Z" fill="#3568e3" stroke="#3568e3" stroke-width="1.51"/><path d="M532,2246L127,2312L951,2299Z" fill="#357acb" stroke="#357acb" stroke-width="1.51"/><path d="M278,2067L350,2254L532,2246Z" fill="#3464c8" stroke="#3464c8" stroke-width="1.51"/><path d="M109,2128L278,2067L87,1852Z" fill="#2f51cc" stroke="#2f51cc" stroke-width="1.51"/><path d="M-254,1600L-148,1843L-77,1641Z" fill="#2548da" stroke="#2548da" stroke-width="1.51"/><path d="M-108,-263L-161,-17L132,-59Z" fill="#2b4cd7" stroke="#2b4cd7" stroke-width="1.51"/><path d="M-180,2081L109,2128L87,1852Z" fill="#325bd5" stroke="#325bd5" stroke-width="1.51"/><path d="M346,-336L114,-299L288,-26Z" fill="#2640cd" stroke="#2640cd" stroke-width="1.51"/><path d="M-286,-130L-308,104L-161,-17Z" fill="#2d53dd" stroke="#2d53dd" stroke-width="1.51"/><path d="M-161,-17L-308,104L-112,197Z" fill="#2948d4" stroke="#2948d4" stroke-width="1.51"/><path d="M-285,362L-308,104L-343,615Z" fill="#2b4bd1" stroke="#2b4bd1" stroke-width="1.51"/><path d="M1892,2056L2094,2184L2157,1848Z" fill="#3878dc" stroke="#3878dc" stroke-width="1.51"/><path d="M2157,1848L2397,1862L2153,1740Z" fill="#3775db" stroke="#3775db" stroke-width="1.51"/><path d="M1729,2168L1872,2279L1892,2056Z" fill="#3670db" stroke="#3670db" stroke-width="1.51"/><path d="M1713,2391L1872,2279L1729,2168Z" fill="#3775db" stroke="#3775db" stroke-width="1.51"/><path d="M1713,2391L1729,2168L1451,2278Z" fill="#3676d9" stroke="#3676d9" stroke-width="1.51"/><path d="M1211,2364L1713,2391L1451,2278Z" fill="#3588d8" stroke="#3588d8" stroke-width="1.51"/><path d="M2159,2327L2094,2184L1872,2279Z" fill="#378dde" stroke="#378dde" stroke-width="1.51"/><path d="M1872,2279L2094,2184L1892,2056Z" fill="#387ddc" stroke="#387ddc" stroke-width="1.51"/><path d="M2336,1594L2397,1862L2342,1425Z" fill="#377dda" stroke="#377dda" stroke-width="1.51"/><path d="M2279,2077L2397,1862L2157,1848Z" fill="#3884dd" stroke="#3884dd" stroke-width="1.51"/><path d="M114,-299L-108,-263L132,-59Z" fill="#2b4cd7" stroke="#2b4cd7" stroke-width="1.51"/><path d="M-118,2262L127,2312L109,2128Z" fill="#376ed5" stroke="#376ed5" stroke-width="1.51"/><path d="M109,2128L127,2312L350,2254Z" fill="#3564cc" stroke="#3564cc" stroke-width="1.51"/><path d="M350,2254L127,2312L532,2246Z" fill="#3567c8" stroke="#3567c8" stroke-width="1.51"/><path d="M1211,2364L127,2312L1713,2391Z" fill="#1fa7d1" stroke="#1fa7d1" stroke-width="1.51"/><path d="M2148,-16L2180,-355L1918,-69Z" fill="#366ade" stroke="#366ade" stroke-width="1.51"/><path d="M2395,363L2363,-134L2275,182Z" fill="#3872d1" stroke="#3872d1" stroke-width="1.51"/><path d="M2094,2184L2279,2077L2157,1848Z" fill="#3885dd" stroke="#3885dd" stroke-width="1.51"/><path d="M-148,1843L-180,2081L87,1852Z" fill="#2f57d8" stroke="#2f57d8" stroke-width="1.51"/><path d="M-333,1964L-180,2081L-148,1843Z" fill="#3463e1" stroke="#3463e1" stroke-width="1.51"/><path d="M-333,1964L-148,1843L-254,1600Z" fill="#2c55e0" stroke="#2c55e0" stroke-width="1.51"/><path d="M1895,-303L2180,-355L1492,-315Z" fill="#315fe5" stroke="#315fe5" stroke-width="1.51"/><path d="M2289,-282L2180,-355L2148,-16Z" fill="#397be3" stroke="#397be3" stroke-width="1.51"/><path d="M-108,-263L-286,-130L-161,-17Z" fill="#2f56e0" stroke="#2f56e0" stroke-width="1.51"/><path d="M2363,-134L2289,-282L2148,-16Z" fill="#397cdf" stroke="#397cdf" stroke-width="1.51"/><path d="M-343,615L-333,1964L-299,1423Z" fill="#336cdf" stroke="#336cdf" stroke-width="1.51"/><path d="M-299,1423L-333,1964L-254,1600Z" fill="#2a53e1" stroke="#2a53e1" stroke-width="1.51"/><path d="M-269,2120L-118,2262L-180,2081Z" fill="#3874e1" stroke="#3874e1" stroke-width="1.51"/><path d="M-180,2081L-118,2262L109,2128Z" fill="#376dda" stroke="#376dda" stroke-width="1.51"/><path d="M-333,1964L-269,2120L-180,2081Z" fill="#376fe4" stroke="#376fe4" stroke-width="1.51"/><path d="M2094,2184L2159,2327L2279,2077Z" fill="#3795de" stroke="#3795de" stroke-width="1.51"/><path d="M2279,2077L2333,2373L2397,1862Z" fill="#359bdf" stroke="#359bdf" stroke-width="1.51"/><path d="M1713,2391L2159,2327L1872,2279Z" fill="#3889dd" stroke="#3889dd" stroke-width="1.51"/><path d="M-108,-263L-238,-360L-286,-130Z" fill="#325ee8" stroke="#325ee8" stroke-width="1.51"/><path d="M114,-299L-238,-360L-108,-263Z" fill="#305ae4" stroke="#305ae4" stroke-width="1.51"/><path d="M346,-336L-238,-360L114,-299Z" fill="#2d52dd" stroke="#2d52dd" stroke-width="1.51"/><path d="M776,-397L-238,-360L346,-336Z" fill="#2948d3" stroke="#2948d3" stroke-width="1.51"/><path d="M-333,1964L-332,2269L-269,2120Z" fill="#3978e7" stroke="#3978e7" stroke-width="1.51"/><path d="M-269,2120L-332,2269L-118,2262Z" fill="#3a7de4" stroke="#3a7de4" stroke-width="1.51"/><path d="M-118,2262L-332,2269L127,2312Z" fill="#397bdd" stroke="#397bdd" stroke-width="1.51"/><path d="M-343,615L-332,2269L-333,1964Z" fill="#2d58e3" stroke="#2d58e3" stroke-width="1.51"/><path d="M1713,2391L2333,2373L2159,2327Z" fill="#359adf" stroke="#359adf" stroke-width="1.51"/><path d="M2159,2327L2333,2373L2279,2077Z" fill="#32a2df" stroke="#32a2df" stroke-width="1.51"/></svg>